<?xml version="1.0" encoding="UTF-8" standalone="no"?>
<!-- Created with Inkscape (http://www.inkscape.org/) -->

<svg
   xmlns:dc="http://purl.org/dc/elements/1.1/"
   xmlns:cc="http://creativecommons.org/ns#"
   xmlns:rdf="http://www.w3.org/1999/02/22-rdf-syntax-ns#"
   xmlns:svg="http://www.w3.org/2000/svg"
   xmlns="http://www.w3.org/2000/svg"
   xmlns:sodipodi="http://sodipodi.sourceforge.net/DTD/sodipodi-0.dtd"
   xmlns:inkscape="http://www.inkscape.org/namespaces/inkscape"
   width="172.81374mm"
   height="119.99319mm"
   viewBox="0 0 172.81374 119.99319"
   version="1.1"
   id="svg8"
   sodipodi:docname="bike.svg"
   inkscape:version="0.92.0 r15299">
  <defs
     id="defs2">
    <inkscape:perspective
       sodipodi:type="inkscape:persp3d"
       inkscape:vp_x="0 : 148.5 : 1"
       inkscape:vp_y="0 : 1000 : 0"
       inkscape:vp_z="210.00001 : 148.5 : 1"
       inkscape:persp3d-origin="105 : 99 : 1"
       id="perspective4507" />
  </defs>
  <sodipodi:namedview
     id="base"
     pagecolor="#ffffff"
     bordercolor="#666666"
     borderopacity="1.0"
     inkscape:pageopacity="0.0"
     inkscape:pageshadow="2"
     inkscape:zoom="1"
     inkscape:cx="314.00307"
     inkscape:cy="256.14337"
     inkscape:document-units="mm"
     inkscape:current-layer="layer1"
     showgrid="false"
     inkscape:measure-start="0,0"
     inkscape:measure-end="0,0"
     inkscape:window-width="1920"
     inkscape:window-height="1001"
     inkscape:window-x="-9"
     inkscape:window-y="-9"
     inkscape:window-maximized="1" />
  <metadata
     id="metadata5">
    <rdf:RDF>
      <cc:Work
         rdf:about="">
        <dc:format>image/svg+xml</dc:format>
        <dc:type
           rdf:resource="http://purl.org/dc/dcmitype/StillImage" />
        <dc:title></dc:title>
      </cc:Work>
    </rdf:RDF>
  </metadata>
  <g
     inkscape:label="Layer 1"
     inkscape:groupmode="layer"
     id="layer1"
     transform="translate(1.5643252,-65.814385)">
    <path
       style="color:#000000;font-style:normal;font-variant:normal;font-weight:normal;font-stretch:normal;font-size:medium;line-height:normal;font-family:sans-serif;font-variant-ligatures:normal;font-variant-position:normal;font-variant-caps:normal;font-variant-numeric:normal;font-variant-alternates:normal;font-feature-settings:normal;text-indent:0;text-align:start;text-decoration:none;text-decoration-line:none;text-decoration-style:solid;text-decoration-color:#000000;letter-spacing:normal;word-spacing:normal;text-transform:none;writing-mode:lr-tb;direction:ltr;text-orientation:mixed;dominant-baseline:auto;baseline-shift:baseline;text-anchor:start;white-space:normal;shape-padding:0;clip-rule:nonzero;display:inline;overflow:visible;visibility:visible;opacity:1;isolation:auto;mix-blend-mode:normal;color-interpolation:sRGB;color-interpolation-filters:linearRGB;solid-color:#000000;solid-opacity:1;vector-effect:none;fill:#000000;fill-opacity:1;fill-rule:evenodd;stroke:none;stroke-width:11.33858299;stroke-linecap:butt;stroke-linejoin:miter;stroke-miterlimit:4;stroke-dasharray:none;stroke-dashoffset:0;stroke-opacity:1;color-rendering:auto;image-rendering:auto;shape-rendering:auto;text-rendering:auto;enable-background:accumulate"
       d="m 239.56836,0 c -44.22983,20.010334 -81.13737,61.715294 -88.10742,112.20898 104.64183,32.51006 176.64133,130.30746 204.22851,233.67383 48.91497,21.46061 110.13714,18.62724 164.89649,-16.89258 52.72981,-34.2034 109.04929,-109.58116 123.63672,-205.95703 -20.42347,-3.3696 -41.52959,-5.06638 -62.79688,-4.99218 -99.36765,0.34668 -202.24031,39.36212 -255.33398,127.10351 -36.72844,-63.1096 -91.44743,-115.65275 -161.30274,-140.44726 8.77723,-42.10012 40.44395,-76.715746 79.45117,-94.363286 z m 345.34375,129.29297 c 16.39044,0.0975 32.67876,1.28425 48.61133,3.51953 -25.25038,91.99363 -62.79743,152.12694 -114.49414,185.66016 -51.18764,33.20303 -107.00604,38.66078 -153.49805,20.42578 -7.85328,-28.2314 -18.92058,-56.04078 -33.00977,-82.26563 50.09897,-88.52696 153.1007,-127.93059 252.39063,-127.33984 z M 139.24023,175.0332 c -76.833373,0 -139.23632375,62.41077 -139.23632375,139.24414 0,76.83338 62.40295075,139.23633 139.23632375,139.23633 76.83338,0 139.23829,-62.40295 139.23829,-139.23633 0,-76.83337 -62.40491,-139.24414 -139.23829,-139.24414 z m 0,11.33789 c 70.70555,0 127.89844,57.2007 127.89844,127.90625 0,70.70555 -57.19289,127.89844 -127.89844,127.89844 -70.705549,0 -127.898433,-57.19289 -127.898433,-127.89844 0,-70.70555 57.192884,-127.90625 127.898433,-127.90625 z m 486.83204,45.44141 c -1.77963,4.01363 -3.60753,7.9486 -5.48633,11.80273 13.42106,20.23597 21.23437,44.52478 21.23437,70.65821 0,70.70555 -57.19292,127.90625 -127.89843,127.90625 -46.45029,0 -87.0664,-24.69173 -109.46876,-61.67774 -4.92113,-0.76754 -9.77793,-1.7565 -14.56054,-2.95703 23.06513,45.07427 69.97272,75.97266 124.0293,75.97266 76.83341,0 139.23632,-62.41077 139.23632,-139.24414 0,-30.85119 -10.06786,-59.36984 -27.08593,-82.46094 z"
       transform="matrix(0.26458333,0,0,0.26458333,-1.5653587,65.814385)"
       id="path4509"
       inkscape:connector-curvature="0" />
  </g>
</svg>
