<?xml version="1.0" encoding="UTF-8" standalone="no"?>
<!-- Created with Inkscape (http://www.inkscape.org/) -->

<svg
   xmlns:dc="http://purl.org/dc/elements/1.1/"
   xmlns:cc="http://creativecommons.org/ns#"
   xmlns:rdf="http://www.w3.org/1999/02/22-rdf-syntax-ns#"
   xmlns:svg="http://www.w3.org/2000/svg"
   xmlns="http://www.w3.org/2000/svg"
   xmlns:sodipodi="http://sodipodi.sourceforge.net/DTD/sodipodi-0.dtd"
   xmlns:inkscape="http://www.inkscape.org/namespaces/inkscape"
   width="69.999992mm"
   height="70mm"
   viewBox="0 0 69.999994 70.000001"
   version="1.1"
   id="svg8"
   sodipodi:docname="clock.svg"
   inkscape:version="0.92.0 r15299">
  <defs
     id="defs2">
    <inkscape:perspective
       sodipodi:type="inkscape:persp3d"
       inkscape:vp_x="0 : 148.5 : 1"
       inkscape:vp_y="0 : 1000 : 0"
       inkscape:vp_z="210.00002 : 148.5 : 1"
       inkscape:persp3d-origin="105.00001 : 98.999998 : 1"
       id="perspective4507" />
  </defs>
  <sodipodi:namedview
     id="base"
     pagecolor="#ffffff"
     bordercolor="#666666"
     borderopacity="1.0"
     inkscape:pageopacity="0.0"
     inkscape:pageshadow="2"
     inkscape:zoom="1.4142136"
     inkscape:cx="113.40278"
     inkscape:cy="150.56066"
     inkscape:document-units="mm"
     inkscape:current-layer="layer1"
     showgrid="false"
     inkscape:measure-start="0,0"
     inkscape:measure-end="0,0"
     inkscape:window-width="1920"
     inkscape:window-height="1001"
     inkscape:window-x="-9"
     inkscape:window-y="-9"
     inkscape:window-maximized="1" />
  <metadata
     id="metadata5">
    <rdf:RDF>
      <cc:Work
         rdf:about="">
        <dc:format>image/svg+xml</dc:format>
        <dc:type
           rdf:resource="http://purl.org/dc/dcmitype/StillImage" />
        <dc:title></dc:title>
      </cc:Work>
    </rdf:RDF>
  </metadata>
  <g
     inkscape:label="Layer 1"
     inkscape:groupmode="layer"
     id="layer1"
     transform="translate(-86.648759,-99.916061)">
    <path
       style="color:#000000;font-style:normal;font-variant:normal;font-weight:normal;font-stretch:normal;font-size:medium;line-height:normal;font-family:sans-serif;font-variant-ligatures:normal;font-variant-position:normal;font-variant-caps:normal;font-variant-numeric:normal;font-variant-alternates:normal;font-feature-settings:normal;text-indent:0;text-align:start;text-decoration:none;text-decoration-line:none;text-decoration-style:solid;text-decoration-color:#000000;letter-spacing:normal;word-spacing:normal;text-transform:none;writing-mode:lr-tb;direction:ltr;text-orientation:mixed;dominant-baseline:auto;baseline-shift:baseline;text-anchor:start;white-space:normal;shape-padding:0;clip-rule:nonzero;display:inline;overflow:visible;visibility:visible;opacity:0.97000002;isolation:auto;mix-blend-mode:normal;color-interpolation:sRGB;color-interpolation-filters:linearRGB;solid-color:#000000;solid-opacity:1;vector-effect:none;fill:#000000;fill-opacity:1;fill-rule:evenodd;stroke:none;stroke-width:4.08740044;stroke-linecap:round;stroke-linejoin:round;stroke-miterlimit:4;stroke-dasharray:none;stroke-dashoffset:0;stroke-opacity:1;paint-order:markers fill stroke;color-rendering:auto;image-rendering:auto;shape-rendering:auto;text-rendering:auto;enable-background:accumulate"
       d="m 121.64798,99.916061 c -19.27443,-5.5e-5 -34.999221,15.662109 -34.999221,35.001069 0,19.33897 15.724791,34.99899 34.999221,34.99893 19.2744,5e-5 35.00075,-15.65996 35.00077,-34.99893 -2e-5,-19.33895 -15.72637,-35.001118 -35.00077,-35.001069 z m 0,4.144699 c 17.15895,-4e-5 30.96983,13.82409 30.96984,30.85637 -1e-5,17.03229 -13.81089,30.85428 -30.96984,30.85423 -17.15898,5e-5 -30.968301,-13.82194 -30.968301,-30.85423 0,-17.03229 13.809321,-30.85642 30.968301,-30.85637 z m -1.41656,15.52296 c -1.1285,0 -2.03682,0.85392 -2.03682,1.91467 v 17.37391 0.17936 c 0,0.27373 0.0617,0.53327 0.17082,0.76833 0.25931,0.68095 0.78833,1.14634 1.40353,1.14634 h 0.46247 13.97072 c 0.87223,0 1.57436,-0.93386 1.57436,-2.09403 0,-1.16018 -0.70213,-2.09404 -1.57436,-2.09404 h -11.9339 v -15.27987 c 0,-1.06075 -0.90832,-1.91467 -2.03682,-1.91467 z"
       id="path7047"
       inkscape:connector-curvature="0" />
  </g>
</svg>
