<?xml version="1.0" encoding="UTF-8" standalone="no"?>
<!-- Created with Inkscape (http://www.inkscape.org/) -->

<svg
   xmlns:dc="http://purl.org/dc/elements/1.1/"
   xmlns:cc="http://creativecommons.org/ns#"
   xmlns:rdf="http://www.w3.org/1999/02/22-rdf-syntax-ns#"
   xmlns:svg="http://www.w3.org/2000/svg"
   xmlns="http://www.w3.org/2000/svg"
   xmlns:sodipodi="http://sodipodi.sourceforge.net/DTD/sodipodi-0.dtd"
   xmlns:inkscape="http://www.inkscape.org/namespaces/inkscape"
   width="69.999962mm"
   height="70.000008mm"
   viewBox="0 0 69.999963 70.000009"
   version="1.1"
   id="svg8"
   sodipodi:docname="setitngs.svg"
   inkscape:version="0.92.0 r15299">
  <defs
     id="defs2">
    <inkscape:perspective
       sodipodi:type="inkscape:persp3d"
       inkscape:vp_x="0 : 148.5 : 1"
       inkscape:vp_y="0 : 1000 : 0"
       inkscape:vp_z="210.00002 : 148.5 : 1"
       inkscape:persp3d-origin="105.00001 : 98.999998 : 1"
       id="perspective4507" />
  </defs>
  <sodipodi:namedview
     id="base"
     pagecolor="#ffffff"
     bordercolor="#666666"
     borderopacity="1.0"
     inkscape:pageopacity="0.0"
     inkscape:pageshadow="2"
     inkscape:zoom="1.4142136"
     inkscape:cx="250.52701"
     inkscape:cy="122.929"
     inkscape:document-units="mm"
     inkscape:current-layer="layer1"
     showgrid="false"
     inkscape:measure-start="0,0"
     inkscape:measure-end="0,0"
     inkscape:window-width="1920"
     inkscape:window-height="1001"
     inkscape:window-x="-9"
     inkscape:window-y="-9"
     inkscape:window-maximized="1" />
  <metadata
     id="metadata5">
    <rdf:RDF>
      <cc:Work
         rdf:about="">
        <dc:format>image/svg+xml</dc:format>
        <dc:type
           rdf:resource="http://purl.org/dc/dcmitype/StillImage" />
        <dc:title></dc:title>
      </cc:Work>
    </rdf:RDF>
  </metadata>
  <g
     inkscape:label="Layer 1"
     inkscape:groupmode="layer"
     id="layer1"
     transform="translate(-50.367974,-92.605174)">
    <path
       style="color:#000000;font-style:normal;font-variant:normal;font-weight:normal;font-stretch:normal;font-size:medium;line-height:normal;font-family:sans-serif;font-variant-ligatures:normal;font-variant-position:normal;font-variant-caps:normal;font-variant-numeric:normal;font-variant-alternates:normal;font-feature-settings:normal;text-indent:0;text-align:start;text-decoration:none;text-decoration-line:none;text-decoration-style:solid;text-decoration-color:#000000;letter-spacing:normal;word-spacing:normal;text-transform:none;writing-mode:lr-tb;direction:ltr;text-orientation:mixed;dominant-baseline:auto;baseline-shift:baseline;text-anchor:start;white-space:normal;shape-padding:0;clip-rule:nonzero;display:inline;overflow:visible;visibility:visible;opacity:0.97000002;isolation:auto;mix-blend-mode:normal;color-interpolation:sRGB;color-interpolation-filters:linearRGB;solid-color:#000000;solid-opacity:1;vector-effect:none;fill:#000000;fill-opacity:1;fill-rule:evenodd;stroke:none;stroke-width:3.18214011;stroke-linecap:round;stroke-linejoin:round;stroke-miterlimit:4;stroke-dasharray:none;stroke-dashoffset:0;stroke-opacity:1;paint-order:markers fill stroke;color-rendering:auto;image-rendering:auto;shape-rendering:auto;text-rendering:auto;enable-background:accumulate"
       d="m 90.841286,92.605174 a 1.5697636,1.6129884 0 0 0 -1.43267,0.95552 l -1.84346,4.25677 c -0.0194,0.0447 -0.54923,0.72451 -2.02333,0.72451 -1.49093,0 -2.02753,-0.75684 -1.97018,-0.58171 l -1.38363,-4.22317 a 1.5697636,1.6129884 0 0 0 -1.64318,-1.09202 c -6.26803,0.64212 -10.016818,1.70848 -15.127897,5.5819 a 1.5697636,1.6129884 0 0 0 -0.50073,1.959326 l 1.9702,4.50878 a 1.5697636,1.6129884 0 0 0 0.0981,0.1869 c -0.005,0.002 -0.002,0.004 -0.0532,0.1386 -0.13202,0.35194 -0.50015,0.93847 -1.04641,1.46373 -0.54633,0.52529 -1.145011,0.86989 -1.510331,0.98911 -0.153589,0.0501 -0.179569,0.0456 -0.1819,0.0504 a 1.5697636,1.6129884 0 0 0 -0.11445,-0.0756 l -4.228539,-2.45073 a 1.5697636,1.6129884 0 0 0 -1.941571,0.32971 c -4.65347,5.34997 -6.24307,9.14469 -6.98352,16.18077 a 1.5697636,1.6129884 0 0 0 0.86247,1.61913 l 4.42678,2.25123 c 0.190281,0.0967 0.788881,0.58999 0.788881,2.04964 0,0.75026 -0.15903,1.33191 -0.32087,1.65483 -0.161851,0.32292 -0.28892,0.30954 -0.12671,0.2709 l -4.970421,1.18232 a 1.5697636,1.6129884 0 0 0 -1.20786,1.74303 c 0.66431,6.42804 1.97724,10.91246 6.04135,16.11357 a 1.5697636,1.6129884 0 0 0 1.945661,0.42211 l 4.76809,-2.53684 a 1.5697636,1.6129884 0 0 0 0.0552,-0.0336 c 0.024,0.0224 0.928071,0.29857 1.679961,1.09831 0.51908,0.55208 0.85672,1.15445 0.970789,1.51203 0.0427,0.13378 0.0397,0.13379 0.045,0.1386 l -2.509741,3.65197 a 1.5697636,1.6129884 0 0 0 0.288181,2.17983 c 5.29398,4.45442 9.835957,7.05034 16.883487,7.77223 a 1.5697636,1.6129884 0 0 0 1.65544,-1.12982 l 1.38363,-4.60957 c -0.0706,0.23548 0.4634,-0.54391 1.95791,-0.54391 1.4772,0 2.00872,0.69364 2.01107,0.69931 l 1.84552,4.46047 a 1.5697636,1.6129884 0 0 0 1.60026,0.97442 c 6.39139,-0.65464 9.670704,-2.5066 14.668054,-6.29381 a 1.5697636,1.6129884 0 0 0 0.47007,-2.02233 l -1.97019,-4.03417 a 1.5697636,1.6129884 0 0 0 -0.0674,-0.1239 c 0.005,-0.002 5.3e-4,-0.004 0.051,-0.1386 0.132,-0.35193 0.50014,-0.93846 1.04641,-1.46373 0.72784,-0.69983 1.55904,-0.99309 1.72901,-1.01641 a 1.5697636,1.6129884 0 0 0 0.10627,0.0672 l 4.23059,2.33313 a 1.5697636,1.6129884 0 0 0 1.9109,-0.3465 c 4.67903,-5.37935 6.01832,-9.30041 6.75463,-16.29838 a 1.5697636,1.6129884 0 0 0 -0.89517,-1.63592 l -4.19583,-2.01184 c -0.14227,-0.0683 -0.7562,-0.57017 -0.7562,-2.03493 0,-1.48478 0.69006,-2.00308 0.60905,-1.97403 l 4.62502,-1.65693 a 1.5697636,1.6129884 0 0 0 1.04436,-1.69263 c -0.66013,-6.38737 -1.66974,-9.89882 -5.69392,-15.04885 a 1.5697636,1.6129884 0 0 0 -1.80259,-0.48931 l -4.76808,1.94463 a 1.5697636,1.6129884 0 0 0 -0.24117,0.126 c -0.001,-0.005 -0.0281,-6e-4 -0.17985,-0.0588 -0.35838,-0.13749 -0.93808,-0.51258 -1.4572,-1.06471 -0.51913,-0.55217 -0.85864,-1.15433 -0.97282,-1.51203 -0.0441,-0.13795 -0.0394,-0.14122 -0.045,-0.1428 a 1.5697636,1.6129884 0 0 0 0.16554,-0.31291 l 1.71267,-4.37437 a 1.5697636,1.6129884 0 0 0 -0.46189,-1.850136 c -5.29402,-4.45444 -8.707634,-5.99996 -15.616354,-6.70751 a 1.5697636,1.6129884 0 0 0 -0.15738,-0.008 z m 0.95444,3.37896 c 5.27126,0.63831 7.8031,1.7679 11.923304,5.124076 l -1.26714,3.23406 0.38423,-0.57751 c -0.97296,0.93555 -0.88613,2.26352 -0.5743,3.24036 0.31184,0.97683 0.89579,1.89956 1.69632,2.75104 0.80059,0.85151 1.68006,1.48398 2.61805,1.84383 0.93801,0.35985 2.19708,0.52376 3.16988,-0.4116 l -0.49459,0.3213 3.63584,-1.48262 c 2.80414,3.78967 3.56889,6.47782 4.12227,11.18059 l -3.35381,1.20122 c -1.81943,0.65221 -2.71412,2.63017 -2.71412,5.01908 0,2.40891 1.04097,4.22593 2.56696,4.95818 l 3.14126,1.50573 c -0.6432,5.41784 -1.65992,8.27004 -5.05217,12.38811 l -3.07995,-1.69893 0.38628,0.3003 c -0.57901,-0.61581 -1.3794,-0.80397 -2.02945,-0.78121 -1.43195,0.0501 -2.66424,0.80219 -3.82184,1.91523 -0.84167,0.80932 -1.47135,1.69931 -1.83119,2.65865 -0.35987,0.95933 -0.5137,2.28213 0.41283,3.26765 l -0.27387,-0.3969 1.33662,2.73214 c -3.745364,2.76368 -6.313284,4.16997 -10.887104,4.77968 l -1.36727,-3.30546 c -0.70625,-1.70803 -2.54756,-2.66284 -4.90094,-2.66284 -2.33585,0 -4.3538,0.80552 -4.95816,2.82035 l -0.97691,3.25715 c -5.16762,-0.74046 -8.645597,-2.58766 -12.793937,-5.9326 l 1.6432,-2.38984 -0.21051,0.24781 c 0.97282,-0.93535 0.887999,-2.26341 0.57634,-3.24036 -0.311671,-0.97695 -0.89566,-1.89948 -1.69633,-2.75104 -1.20085,-1.27728 -2.48979,-2.18528 -4.122261,-2.11894 -0.54527,0.0222 -1.179609,0.21941 -1.66566,0.68671 l 0.349481,-0.2541 -3.55205,1.89003 c -2.76582,-3.83266 -3.762661,-7.21837 -4.36138,-11.9765 l 3.490729,-0.83162 c 1.059061,-0.25227 1.7645,-1.04664 2.2093,-1.93413 0.444811,-0.88749 0.66832,-1.94668 0.66832,-3.13325 0,-2.41404 -1.076259,-4.19914 -2.5363,-4.94138 l -3.398779,-1.72833 c 0.660849,-5.38593 1.823739,-8.15993 5.25247,-12.28311 l 3.07585,1.78293 -0.35765,-0.2835 c 0.926489,0.98544 2.193029,0.88475 3.14739,0.57331 0.954349,-0.31145 1.86423,-0.89804 2.70593,-1.70733 0.84168,-0.80932 1.46931,-1.69931 1.82916,-2.65865 0.35986,-0.95934 0.51374,-2.28213 -0.41284,-3.26765 l 0.30249,0.45991 -1.42247,-3.25716 c 3.752177,-2.658586 6.663677,-3.482146 11.318337,-4.034166 l 0.95035,2.90435 a 1.5697636,1.6129884 0 0 0 0,0.002 c 0.63532,1.939876 2.60646,2.778336 4.94589,2.778336 2.35645,0 4.17303,-0.98131 4.89072,-2.637636 z m -6.42762,16.777176 c -7.95989,5e-5 -14.445227,6.66398 -14.445277,14.84305 -2.91e-4,8.17932 6.485167,14.8451 14.445277,14.84515 7.96035,2.7e-4 14.44762,-6.6656 14.44733,-14.84515 -5e-5,-8.1793 -6.48721,-14.84333 -14.44733,-14.84305 z m 0,3.22566 c 6.26353,-2.3e-4 11.30808,5.1814 11.30812,11.61739 2.2e-4,6.43619 -5.0444,11.61972 -11.30812,11.6195 -6.26353,-4e-5 -11.30629,-5.18349 -11.30606,-11.6195 4e-5,-6.43581 5.04272,-11.61736 11.30606,-11.61739 z"
       id="path6917"
       inkscape:connector-curvature="0" />
  </g>
</svg>
